<svg id="Capa_1" enable-background="new 0 0 512 512" height="512" viewBox="0 0 512 512" width="512" xmlns="http://www.w3.org/2000/svg"><g><path d="m510.418 249.291-60-120c-2.549-5.083-7.734-8.291-13.418-8.291h-142.728l-54.089 46.945-45.183 88.055 42.303 82.442 56.969 52.558h51.728c8.276 0 16 6.724 16 15v61c0 24.814 20.186 45 45 45s45-20.186 45-45v-87.455l58.418-116.836c1.055-2.109 1.582-4.409 1.582-6.709s-.527-4.6-1.582-6.709z" fill="#ff9100"/><path d="m238.418 8.291c-2.549-5.083-7.734-8.291-13.418-8.291h-75-75c-5.684 0-10.869 3.208-13.418 8.291l-60 121c-2.109 4.219-2.109 9.199 0 13.418l56.646 113.291 37.397 30h54.375 36.563l38.437-30 69.272-135z" fill="#fff261"/><path d="m225 256 69.272-135-55.854-112.709c-2.549-5.083-7.734-8.291-13.418-8.291h-75v286h36.563z" fill="#ffda2d"/><path d="m231.343 129.291-30-61c-2.549-5.083-7.735-8.291-13.418-8.291h-37.925-37.925c-5.684 0-10.869 3.208-13.418 8.291l-30 61c-2.109 4.219-2.109 9.199 0 13.418l30 60c2.549 5.083 7.734 8.291 13.418 8.291h37.925 37.925c5.684 0 10.869-3.208 13.418-8.291l30-60c2.109-4.219 2.109-9.199 0-13.418z" fill="#ffda2d"/><path d="m201.343 202.709 30-60c2.109-4.219 2.109-9.199 0-13.418l-30-61c-2.549-5.083-7.735-8.291-13.418-8.291h-37.925v151h37.925c5.683 0 10.869-3.208 13.418-8.291z" fill="#fdbf00"/><path d="m225 256h-75-91.772l-56.646 113.291c-2.109 4.219-2.109 9.199 0 13.418l60 121c2.549 5.083 7.734 8.291 13.418 8.291h75 75c5.684 0 10.869-3.208 13.418-8.291l55.854-112.709z" fill="#ffda2d"/><path d="m238.418 503.709 55.854-112.709-69.272-135h-75v256h75c5.684 0 10.869-3.208 13.418-8.291z" fill="#fdbf00"/><path d="m231.343 369.291-30-60c-2.549-5.083-7.734-8.291-13.418-8.291h-37.925-37.925c-5.684 0-10.869 3.208-13.418 8.291l-30 60c-2.109 4.219-2.109 9.199 0 13.418l30 61c2.549 5.083 7.734 8.291 13.418 8.291h37.925 37.925c5.684 0 10.869-3.208 13.418-8.291l30-61c2.109-4.219 2.109-9.199 0-13.418z" fill="#fdbf00"/><path d="m201.343 443.709 30-61c2.109-4.219 2.109-9.199 0-13.418l-30-60c-2.549-5.083-7.734-8.291-13.418-8.291h-37.925v151h37.925c5.683 0 10.869-3.208 13.418-8.291z" fill="#ff9100"/><path d="m407.925 331h-77.85c-5.684 0-10.869-3.208-13.418-8.291l-30-60c-2.109-4.219-2.109-9.199 0-13.418l30-60c2.549-5.083 7.734-8.291 13.418-8.291h77.85c5.684 0 10.869 3.208 13.418 8.291l30 60c2.109 4.219 2.109 9.199 0 13.418l-30 60c-2.549 5.083-7.735 8.291-13.418 8.291z" fill="#ff641a"/></g></svg>